<svg width="28" height="28" viewBox="0 0 28 28" fill="none" xmlns="http://www.w3.org/2000/svg">
<g clip-path="url(#clip0_938_4)">
<path d="M8.16675 3.50004V4.66671C8.16675 5.28555 8.41258 5.87904 8.85017 6.31662C9.28775 6.75421 9.88124 7.00004 10.5001 7.00004H17.5001C18.1189 7.00004 18.7124 6.75421 19.15 6.31662C19.5876 5.87904 19.8334 5.28555 19.8334 4.66671V3.50004H21.0001C21.6189 3.50004 22.2124 3.74587 22.65 4.18346C23.0876 4.62104 23.3334 5.21454 23.3334 5.83337V18.6667C23.3334 20.5232 22.5959 22.3037 21.2832 23.6165C19.9704 24.9292 18.1899 25.6667 16.3334 25.6667H7.00008C6.38124 25.6667 5.78775 25.4209 5.35017 24.9833C4.91258 24.5457 4.66675 23.9522 4.66675 23.3334V5.83337C4.66675 5.21454 4.91258 4.62104 5.35017 4.18346C5.78775 3.74587 6.38124 3.50004 7.00008 3.50004H8.16675ZM14.0001 16.3334H10.5001C10.1907 16.3334 9.89392 16.4563 9.67512 16.6751C9.45633 16.8939 9.33341 17.1906 9.33341 17.5C9.33341 17.8095 9.45633 18.1062 9.67512 18.325C9.89392 18.5438 10.1907 18.6667 10.5001 18.6667H14.0001C14.3095 18.6667 14.6062 18.5438 14.825 18.325C15.0438 18.1062 15.1667 17.8095 15.1667 17.5C15.1667 17.1906 15.0438 16.8939 14.825 16.6751C14.6062 16.4563 14.3095 16.3334 14.0001 16.3334ZM17.5001 11.6667H10.5001C10.2027 11.667 9.91671 11.7809 9.70048 11.985C9.48426 12.1892 9.35414 12.4682 9.33671 12.765C9.31929 13.0618 9.41587 13.3541 9.60672 13.5822C9.79758 13.8102 10.0683 13.9568 10.3636 13.9919L10.5001 14H17.5001C17.8095 14 18.1062 13.8771 18.325 13.6583C18.5438 13.4395 18.6667 13.1428 18.6667 12.8334C18.6667 12.524 18.5438 12.2272 18.325 12.0084C18.1062 11.7896 17.8095 11.6667 17.5001 11.6667ZM16.3334 2.33337C16.6308 2.3337 16.9168 2.44757 17.133 2.6517C17.3492 2.85583 17.4794 3.13482 17.4968 3.43167C17.5142 3.72852 17.4176 4.02082 17.2268 4.24885C17.0359 4.47687 16.7652 4.62342 16.4699 4.65854L16.3334 4.66671H11.6667C11.3694 4.66638 11.0834 4.55251 10.8672 4.34838C10.6509 4.14425 10.5208 3.86526 10.5034 3.56841C10.486 3.27156 10.5825 2.97926 10.7734 2.75124C10.9642 2.52321 11.235 2.37666 11.5302 2.34154L11.6667 2.33337H16.3334Z" fill="#D5D5D5"/>
</g>
<defs>
<clipPath id="clip0_938_4">
<rect width="28" height="28" fill="white"/>
</clipPath>
</defs>
</svg>
